<svg xmlns="http://www.w3.org/2000/svg" width="512" height="512" viewBox="0 0 1024 1024">
  <path d="M426.666667 426.666667v142.222222h170.666666v-142.222222h256l0.028445 115.370666a141.141333 141.141333 0 0 0-182.954667 151.836445l0.369778 2.474666-44.714667 44.743112a84.622222 84.622222 0 0 0-21.333333 83.825777L284.444444 824.888889a113.777778 113.777778 0 0 1-113.777777-113.777778V426.666667h256z m128 0v99.555555h-85.333334V426.666667h85.333334zM597.333333 170.666667a56.888889 56.888889 0 0 1 56.888889 56.888889v28.444444h142.222222a56.888889 56.888889 0 0 1 56.888889 56.888889v85.333333H170.666667v-85.333333a56.888889 56.888889 0 0 1 56.888889-56.888889h142.222222V227.555556a56.888889 56.888889 0 0 1 56.888889-56.888889h170.666666z m0 56.888889h-170.666666v28.444444h170.666666V227.555556z" fill="#3E5EFF"/>
  <path d="M731.448889 594.488889a113.720889 113.720889 0 0 0-29.468445 109.880889l-55.808 55.864889a56.888889 56.888889 0 1 0 80.440889 80.440889l55.836445-55.808a113.834667 113.834667 0 0 0 127.488-167.736889l-56.035556 56.035555-40.192-40.248889 55.978667-56.035555a113.834667 113.834667 0 0 0-138.24 17.635555z" fill="#53E8F0"/>
</svg>